<svg role="img" aria-label="Editable system diagram" xmlns="http://www.w3.org/2000/svg" viewBox="0 0 600 600" preserveAspectRatio="xMidYMid meet" width="600" height="600">
              <defs>
                <marker id="arrowhead" markerWidth="7" markerHeight="7" refX="6" refY="3.5" orient="auto" markerUnits="userSpaceOnUse"><path d="M1 1 L6 3.5 L1 6 Z" fill="#000"/></marker>
                <marker id="open-arrowhead" markerWidth="8" markerHeight="8" refX="7" refY="4" orient="auto" markerUnits="userSpaceOnUse"><path d="M1 1 L7 4 L1 7" fill="none" stroke="#000" stroke-width="1"/></marker>
                <marker id="arrowhead-knockout" markerWidth="29" markerHeight="29" viewBox="-10 -10 29 29" refX="6" refY="3.5" orient="auto" markerUnits="userSpaceOnUse"><path d="M1 1 L6 3.5 L1 6 Z" fill="#fff" stroke="#fff" stroke-width="12" stroke-linejoin="round"/></marker>
                <marker id="open-arrowhead-knockout" markerWidth="30" markerHeight="30" viewBox="-10 -10 30 30" refX="7" refY="4" orient="auto" markerUnits="userSpaceOnUse"><path d="M1 1 L7 4 L1 7" fill="none" stroke="#fff" stroke-width="15" stroke-linejoin="round" stroke-linecap="round"/></marker>
                <pattern id="halftone" patternUnits="userSpaceOnUse" width="6" height="6"><circle cx="1" cy="1" r="0.55" fill="#000"/><circle cx="4" cy="1" r="0.55" fill="#000"/><circle cx="2.5" cy="4" r="0.55" fill="#000"/><circle cx="5.5" cy="4" r="0.55" fill="#000"/></pattern>
              </defs>
              <rect x="0" y="0" width="600" height="600" fill="#fff"/><g id="shadows-layer"><rect class="node-shadow" x="53" y="230" width="67" height="59" fill="url(#halftone)"/><rect class="node-shadow" x="206" y="365" width="77" height="40" fill="url(#halftone)"/><rect class="node-shadow" x="292" y="192" width="154" height="59" fill="url(#halftone)"/><rect class="node-shadow" x="321" y="345" width="87" height="59" fill="url(#halftone)"/><rect class="node-shadow" x="53" y="345" width="58" height="40" fill="url(#halftone)"/><rect class="node-shadow" x="129" y="518" width="67" height="40" fill="url(#halftone)"/><rect class="node-shadow" x="244" y="518" width="68" height="40" fill="url(#halftone)"/><rect class="node-shadow" x="417" y="287" width="144" height="40" fill="url(#halftone)"/><rect class="node-shadow" x="456" y="499" width="67" height="39" fill="url(#halftone)"/></g>
              <g id="backings-layer"><rect class="node-backing" x="30" y="194" width="76" height="76" fill="#fff"/><rect class="node-backing" x="137" y="232" width="70" height="73" fill="#fff"/><rect class="node-backing" x="183" y="329" width="86" height="57" fill="#fff"/><rect class="node-backing" x="269" y="156" width="163" height="76" fill="#fff"/><rect class="node-backing" x="298" y="309" width="96" height="76" fill="#fff"/><rect class="node-backing" x="30" y="309" width="67" height="57" fill="#fff"/><rect class="node-backing" x="106" y="482" width="76" height="57" fill="#fff"/><rect class="node-backing" x="221" y="482" width="77" height="57" fill="#fff"/><rect class="node-backing" x="201" y="412" width="120" height="51" fill="#fff"/><rect class="node-backing" x="394" y="251" width="153" height="57" fill="#fff"/><rect class="node-backing" x="411" y="353" width="123" height="48" fill="#fff"/><rect class="node-backing" x="466" y="178" width="81" height="48" fill="#fff"/><rect class="node-backing" x="433" y="386" width="76" height="57" fill="#fff"/><rect class="node-backing" x="433" y="425" width="76" height="56" fill="#fff"/><rect class="node-backing" x="433" y="463" width="76" height="56" fill="#fff"/><rect class="node-backing" x="20" y="40" width="143" height="95" fill="#fff"/><rect class="node-backing" x="173" y="39" width="250" height="98" fill="#fff"/><rect class="node-backing" x="442" y="40" width="134" height="95" fill="#fff"/><rect class="node-backing" x="91" y="448" width="120" height="48" fill="#fff"/><rect class="node-backing" x="400" y="543" width="120" height="48" fill="#fff"/></g>
              <g id="edge-knockouts-layer"><path class="edge-knockout" d="M 97 232 L 125 232 L 125 268.5 L 146 268.5" stroke="#fff" stroke-width="18" fill="none" marker-end="url(#arrowhead-knockout)"/><path class="edge-knockout" d="M 146 268.5 L 125 268.5 L 125 337.5 L 88 337.5" stroke="#fff" stroke-width="18" fill="none" marker-end="url(#arrowhead-knockout)"/><path class="edge-knockout" d="M 172 296 L 172 437.5 L 210 437.5" stroke="#fff" stroke-width="18" fill="none" marker-end="url(#arrowhead-knockout)"/><path class="edge-knockout" d="M 63.5 357 L 63.5 510.5 L 115 510.5" stroke="#fff" stroke-width="18" fill="none" marker-end="url(#arrowhead-knockout)"/><path class="edge-knockout" d="M 173 510.5 L 230 510.5" stroke="#fff" stroke-width="18" fill="none" marker-end="url(#arrowhead-knockout)"/><path class="edge-knockout" d="M 259.5 491 L 259.5 454" stroke="#fff" stroke-width="18" fill="none" marker-end="url(#arrowhead-knockout)"/><path class="edge-knockout" d="M 278 194 L 226 194 L 226 338" stroke="#fff" stroke-width="18" fill="none" marker-end="url(#arrowhead-knockout)"/><path class="edge-knockout" d="M 260 357.5 L 307 357.5" stroke="#fff" stroke-width="18" fill="none" marker-end="url(#arrowhead-knockout)"/><path class="edge-knockout" d="M 385 347 L 413 347 L 413 414.5 L 442 414.5" stroke="#fff" stroke-width="18" fill="none" marker-end="url(#open-arrowhead-knockout)"/><path class="edge-knockout" d="M 385 347 L 413 347 L 413 453 L 442 453" stroke="#fff" stroke-width="18" fill="none" marker-end="url(#open-arrowhead-knockout)"/><path class="edge-knockout" d="M 385 347 L 413 347 L 413 491 L 442 491" stroke="#fff" stroke-width="18" fill="none" marker-end="url(#open-arrowhead-knockout)"/><path class="edge-knockout" d="M 472.5 362 L 472.5 299" stroke="#fff" stroke-width="18" fill="none" marker-end="url(#arrowhead-knockout)"/><path class="edge-knockout" d="M 475 202 L 423 202" stroke="#fff" stroke-width="18" fill="none" marker-end="url(#arrowhead-knockout)"/><path class="edge-knockout" d="M 346 376 L 346 548 L 460 548 L 460 552" stroke="#fff" stroke-width="18" fill="none" marker-end="none"/><path class="edge-knockout" d="M 538 202 L 577 202 L 577 548 L 460 548 L 460 552" stroke="#fff" stroke-width="18" fill="none" marker-end="none"/><path class="edge-knockout" d="M 346 318 L 346 250 L 350.5 250 L 350.5 223" stroke="#fff" stroke-width="18" fill="none" marker-end="url(#arrowhead-knockout)"/></g>
              <g id="edges-layer"><g class="edge"><path class="edge-line" d="M 97 232 L 125 232 L 125 268.5 L 146 268.5" stroke="#000" stroke-width="1.5" fill="none" marker-end="url(#arrowhead)"/></g><g class="edge"><path class="edge-line" d="M 146 268.5 L 125 268.5 L 125 337.5 L 88 337.5" stroke="#000" stroke-width="1.5" fill="none" marker-end="url(#arrowhead)"/></g><g class="edge"><path class="edge-line" d="M 172 296 L 172 437.5 L 210 437.5" stroke="#000" stroke-width="1.5" fill="none" marker-end="url(#arrowhead)"/></g><g class="edge"><path class="edge-line" d="M 63.5 357 L 63.5 510.5 L 115 510.5" stroke="#000" stroke-width="1.5" fill="none" marker-end="url(#arrowhead)"/></g><g class="edge"><path class="edge-line" d="M 173 510.5 L 230 510.5" stroke="#000" stroke-width="1.5" fill="none" marker-end="url(#arrowhead)"/></g><g class="edge"><path class="edge-line" d="M 259.5 491 L 259.5 454" stroke="#000" stroke-width="1.5" fill="none" marker-end="url(#arrowhead)"/></g><g class="edge"><path class="edge-line" d="M 278 194 L 226 194 L 226 338" stroke="#000" stroke-width="1.5" fill="none" marker-end="url(#arrowhead)"/></g><g class="edge"><path class="edge-line" d="M 260 357.5 L 307 357.5" stroke="#000" stroke-width="1.5" fill="none" marker-end="url(#arrowhead)"/></g><g class="edge"><path class="edge-line" d="M 385 347 L 413 347 L 413 414.5 L 442 414.5" stroke="#000" stroke-width="1.5" fill="none" marker-end="url(#open-arrowhead)"/></g><g class="edge"><path class="edge-line" d="M 385 347 L 413 347 L 413 453 L 442 453" stroke="#000" stroke-width="1.5" fill="none" marker-end="url(#open-arrowhead)"/></g><g class="edge"><path class="edge-line" d="M 385 347 L 413 347 L 413 491 L 442 491" stroke="#000" stroke-width="1.5" fill="none" marker-end="url(#open-arrowhead)"/></g><g class="edge"><path class="edge-line" d="M 472.5 362 L 472.5 299" stroke="#000" stroke-width="1.5" fill="none" marker-end="url(#arrowhead)"/></g><g class="edge"><path class="edge-line" d="M 475 202 L 423 202" stroke="#000" stroke-width="1.5" fill="none" marker-end="url(#arrowhead)"/></g><g class="edge"><path class="edge-line" d="M 346 376 L 346 548 L 460 548 L 460 552" stroke="#000" stroke-width="1.5" fill="none" marker-end="none"/></g><g class="edge"><path class="edge-line" d="M 538 202 L 577 202 L 577 548 L 460 548 L 460 552" stroke="#000" stroke-width="1.5" fill="none" marker-end="none"/></g><g class="edge"><path class="edge-line" d="M 346 318 L 346 250 L 350.5 250 L 350.5 223" stroke="#000" stroke-width="1.5" fill="none" marker-end="url(#arrowhead)"/></g></g>
              <g id="nodes-layer"><g class="node"><rect class="node-shape" x="39" y="203" width="58" height="58" fill="#fff" stroke="#000" stroke-width="1"/><text class="node-label" x="68" y="227.8" text-anchor="middle" font-size="15" fill="#000" stroke="#000" stroke-width="0.2" paint-order="stroke fill" font-family="Berkeley Mono, Menlo, monospace" font-weight="500" letter-spacing="0.7"><tspan x="68" dy="0">NO</tspan><tspan x="68" dy="18">SQL</tspan></text></g><g class="node"><rect class="node-shape" x="146" y="241" width="52" height="55" fill="transparent" stroke="none" stroke-width="1"/><text class="node-label" x="172" y="264.3" text-anchor="middle" font-size="15" fill="#000" stroke="#000" stroke-width="0.2" paint-order="stroke fill" font-family="Berkeley Mono, Menlo, monospace" font-weight="500" letter-spacing="0.7"><tspan x="172" dy="0">WEB</tspan><tspan x="172" dy="18">3.0</tspan></text></g><g class="node"><rect class="node-shape" x="192" y="338" width="68" height="39" fill="#fff" stroke="#000" stroke-width="1"/><text class="node-label" x="226" y="362.3" text-anchor="middle" font-size="15" fill="#000" stroke="#000" stroke-width="0.2" paint-order="stroke fill" font-family="Berkeley Mono, Menlo, monospace" font-weight="500" letter-spacing="0.7"><tspan x="226" dy="0">JS LIB</tspan></text></g><g class="node"><rect class="node-shape" x="278" y="165" width="145" height="58" fill="#fff" stroke="#000" stroke-width="1"/><text class="node-label" x="350.5" y="189.8" text-anchor="middle" font-size="15" fill="#000" stroke="#000" stroke-width="0.2" paint-order="stroke fill" font-family="Berkeley Mono, Menlo, monospace" font-weight="500" letter-spacing="0.7"><tspan x="350.5" dy="0">WEBSCALE™</tspan><tspan x="350.5" dy="18">MICROSERVICE</tspan></text></g><g class="node"><rect class="node-shape" x="307" y="318" width="78" height="58" fill="#fff" stroke="#000" stroke-width="1"/><text class="node-label" x="346" y="342.8" text-anchor="middle" font-size="15" fill="#000" stroke="#000" stroke-width="0.2" paint-order="stroke fill" font-family="Berkeley Mono, Menlo, monospace" font-weight="500" letter-spacing="0.7"><tspan x="346" dy="0">OOP</tspan><tspan x="346" dy="18">FACTORY</tspan></text></g><g class="node"><rect class="node-shape" x="39" y="318" width="49" height="39" fill="#fff" stroke="#000" stroke-width="1"/><text class="node-label" x="63.5" y="342.3" text-anchor="middle" font-size="15" fill="#000" stroke="#000" stroke-width="0.2" paint-order="stroke fill" font-family="Berkeley Mono, Menlo, monospace" font-weight="500" letter-spacing="0.7"><tspan x="63.5" dy="0">PAAS</tspan></text></g><g class="node"><rect class="node-shape" x="115" y="491" width="58" height="39" fill="#fff" stroke="#000" stroke-width="1"/><text class="node-label" x="144" y="515.3" text-anchor="middle" font-size="15" fill="#000" stroke="#000" stroke-width="0.2" paint-order="stroke fill" font-family="Berkeley Mono, Menlo, monospace" font-weight="500" letter-spacing="0.7"><tspan x="144" dy="0">GIF</tspan></text></g><g class="node"><rect class="node-shape" x="230" y="491" width="59" height="39" fill="#fff" stroke="#000" stroke-width="1"/><text class="node-label" x="259.5" y="515.3" text-anchor="middle" font-size="15" fill="#000" stroke="#000" stroke-width="0.2" paint-order="stroke fill" font-family="Berkeley Mono, Menlo, monospace" font-weight="500" letter-spacing="0.7"><tspan x="259.5" dy="0">JIF</tspan></text></g><g class="node"><rect class="node-shape" x="210" y="421" width="102" height="33" fill="transparent" stroke="none" stroke-width="1"/><text class="node-label" x="261" y="442.3" text-anchor="middle" font-size="15" fill="#000" stroke="#000" stroke-width="0.2" paint-order="stroke fill" font-family="Berkeley Mono, Menlo, monospace" font-weight="500" letter-spacing="0.7"><tspan x="261" dy="0">FERMION UI</tspan></text></g><g class="node"><rect class="node-shape" x="403" y="260" width="135" height="39" fill="#fff" stroke="#000" stroke-width="1"/><text class="node-label" x="470.5" y="284.3" text-anchor="middle" font-size="15" fill="#000" stroke="#000" stroke-width="0.2" paint-order="stroke fill" font-family="Berkeley Mono, Menlo, monospace" font-weight="500" letter-spacing="0.7"><tspan x="470.5" dy="0">DATA SEWAGE</tspan></text></g><g class="node"><rect class="node-shape" x="420" y="362" width="105" height="30" fill="transparent" stroke="none" stroke-width="1"/><text class="node-label" x="472.5" y="381.8" text-anchor="middle" font-size="15" fill="#000" stroke="#000" stroke-width="0.2" paint-order="stroke fill" font-family="Berkeley Mono, Menlo, monospace" font-weight="500" letter-spacing="0.7"><tspan x="472.5" dy="0">KUBERPODS</tspan></text></g><g class="node"><rect class="node-shape" x="475" y="187" width="63" height="30" fill="transparent" stroke="none" stroke-width="1"/><text class="node-label" x="506.5" y="206.8" text-anchor="middle" font-size="15" fill="#000" stroke="#000" stroke-width="0.2" paint-order="stroke fill" font-family="Berkeley Mono, Menlo, monospace" font-weight="500" letter-spacing="0.7"><tspan x="506.5" dy="0">LOG4J</tspan></text></g><g class="node"><rect class="node-shape" x="442" y="395" width="58" height="39" fill="#fff" stroke="#000" stroke-width="1"/><text class="node-label" x="471" y="419.3" text-anchor="middle" font-size="15" fill="#000" stroke="#000" stroke-width="0.2" paint-order="stroke fill" font-family="Berkeley Mono, Menlo, monospace" font-weight="500" letter-spacing="0.7"><tspan x="471" dy="0">ERR</tspan></text></g><g class="node"><rect class="node-shape" x="442" y="434" width="58" height="38" fill="#fff" stroke="#000" stroke-width="1"/><text class="node-label" x="471" y="457.8" text-anchor="middle" font-size="15" fill="#000" stroke="#000" stroke-width="0.2" paint-order="stroke fill" font-family="Berkeley Mono, Menlo, monospace" font-weight="500" letter-spacing="0.7"><tspan x="471" dy="0">NOP</tspan></text></g><g class="node"><rect class="node-shape" x="442" y="472" width="58" height="38" fill="#fff" stroke="#000" stroke-width="1"/><text class="node-label" x="471" y="495.8" text-anchor="middle" font-size="15" fill="#000" stroke="#000" stroke-width="0.2" paint-order="stroke fill" font-family="Berkeley Mono, Menlo, monospace" font-weight="500" letter-spacing="0.7"><tspan x="471" dy="0">SOE</tspan></text></g><g class="node"><rect class="node-shape" x="29" y="49" width="125" height="77" fill="#fff" stroke="#000" stroke-width="1"/><text class="node-label" x="91.5" y="74.3" text-anchor="middle" font-size="15" fill="#000" stroke="#000" stroke-width="0.65" paint-order="stroke fill" font-family="Berkeley Mono, Menlo, monospace" font-weight="700" letter-spacing="0.7"><tspan x="91.5" dy="0">UWORK® INC</tspan><tspan x="91.5" dy="18">RFC 9000</tspan><tspan x="91.5" dy="18">JAN 2026</tspan></text></g><g class="node"><rect class="node-shape" x="182" y="48" width="232" height="80" fill="#fff" stroke="#000" stroke-width="1"/><rect class="node-inner-border" x="186" y="52" width="224" height="72" fill="none" stroke="#000" stroke-width="1"/><text class="node-label" x="298" y="74.8" text-anchor="middle" font-size="15" fill="#000" stroke="#000" stroke-width="0.65" paint-order="stroke fill" font-family="Berkeley Mono, Menlo, monospace" font-weight="700" letter-spacing="0.7"><tspan x="298" dy="0">CONTAINERIZATION</tspan><tspan x="298" dy="18">ARCHITECTURE OF</tspan><tspan x="298" dy="18">SCALABLE TECHNOLOGIES</tspan></text></g><g class="node"><rect class="node-shape" x="451" y="49" width="116" height="77" fill="#fff" stroke="#000" stroke-width="1"/><text class="node-label" x="509" y="74.3" text-anchor="middle" font-size="15" fill="#000" stroke="#000" stroke-width="0.65" paint-order="stroke fill" font-family="Berkeley Mono, Menlo, monospace" font-weight="700" letter-spacing="0.7"><tspan x="509" dy="0">*~~~~~~~~*</tspan><tspan x="509" dy="18">DEEP DIVE</tspan><tspan x="509" dy="18">*~~~~~~~~*</tspan></text></g><g class="node"><rect class="node-shape" x="100" y="457" width="102" height="30" fill="transparent" stroke="none" stroke-width="1"/><text class="node-label" x="151" y="476.8" text-anchor="middle" font-size="15" fill="#000" stroke="#000" stroke-width="0.2" paint-order="stroke fill" font-family="Berkeley Mono, Menlo, monospace" font-weight="500" letter-spacing="0.7"><tspan x="151" dy="0">AI ENGINE</tspan></text></g><g class="node"><rect class="node-shape" x="409" y="552" width="102" height="30" fill="transparent" stroke="none" stroke-width="1"/><text class="node-label" x="460" y="571.8" text-anchor="middle" font-size="15" fill="#000" stroke="#000" stroke-width="0.2" paint-order="stroke fill" font-family="Berkeley Mono, Menlo, monospace" font-weight="500" letter-spacing="0.7"><tspan x="460" dy="0">DISTRIBUTED</tspan></text></g></g>
            </svg>